<svg width="122" height="26" viewBox="0 0 122 26" fill="none" xmlns="http://www.w3.org/2000/svg">
<path fill-rule="evenodd" clip-rule="evenodd" d="M115.338 16.0618L121.176 10.3837H117.846L113.313 15.067H111.414V10.3837H109.045V22.542H111.414V17.1714H113.373L118.201 22.542H121.56L115.338 16.0618Z" fill="white"/>
<path fill-rule="evenodd" clip-rule="evenodd" d="M104.272 22.5423H106.658V10.384H104.272V22.5423Z" fill="white"/>
<path fill-rule="evenodd" clip-rule="evenodd" d="M102.518 16.4857C102.246 15.9638 101.827 15.5852 101.276 15.3837C100.56 15.1209 99.7231 15.0681 99.0025 15.067H94.2801V10.3837H91.895V22.542H99.072C99.6526 22.542 100.276 22.5081 100.861 22.3696C101.276 22.2711 101.686 22.0992 102.029 21.8025C102.374 21.5024 102.58 21.0996 102.711 20.6967L102.711 20.6961C102.906 20.0934 102.951 19.4169 102.951 18.8137C102.949 18.0892 102.883 17.1865 102.518 16.4857ZM100.451 19.5672C100.368 19.7939 100.241 19.9787 100.04 20.1133C99.8488 20.2405 99.6102 20.3239 99.353 20.373C99.0969 20.422 98.8243 20.4376 98.5714 20.4376H94.2832V17.1714H98.5072C99.0237 17.1692 99.6213 17.2387 100.017 17.4935C100.227 17.6281 100.359 17.8145 100.446 18.0445C100.532 18.2734 100.566 18.5438 100.566 18.8137C100.566 19.0765 100.534 19.3415 100.451 19.5672Z" fill="white"/>
<path fill-rule="evenodd" clip-rule="evenodd" d="M89.0258 16.7495C88.7878 16.2405 88.4044 15.8596 87.8821 15.6501C87.2055 15.377 86.3974 15.3216 85.7144 15.3205H80.1653V12.3618H88.2618V10.384H77.7797V22.5423H85.7309C86.408 22.5413 87.1965 22.4863 87.8672 22.224C88.3763 22.0258 88.7676 21.6703 89.0174 21.1769C89.3461 20.5274 89.4087 19.714 89.4103 19.0461C89.4087 18.3352 89.353 17.4481 89.0258 16.7495ZM86.8948 19.874C86.7892 20.1417 86.592 20.3135 86.3083 20.4202C85.9891 20.5392 85.5294 20.5656 85.1497 20.5645H80.1653V17.2983H85.2473C85.6184 17.2967 86.0607 17.329 86.3603 17.4621C86.6286 17.5806 86.8163 17.7545 86.9101 18.0114C87.0019 18.2624 87.0257 18.6039 87.0247 18.9072C87.0263 19.232 86.9992 19.6095 86.8948 19.874Z" fill="white"/>
<path fill-rule="evenodd" clip-rule="evenodd" d="M55.6338 6.97122C55.7303 7.91004 56.1423 8.09478 55.6667 9.2442C55.4403 9.78982 54.8411 10.4609 54.3999 10.6419C54.6412 12.693 56.7574 12.7706 57.224 14.2432C57.8243 16.1391 56.2537 17.0989 56.3422 19.6412C56.3576 19.6288 56.3777 19.5884 56.3846 19.6008C56.3915 19.6127 56.4165 19.5701 56.4255 19.5599C56.6259 19.3315 56.3735 19.6337 56.496 19.4786C56.89 18.9798 56.8783 18.8645 57.6461 18.4627C59.2915 17.6009 61.7752 17.9586 62.7164 19.2534L63.0287 19.6541C63.0648 16.9099 61.5832 16.1628 62.1373 14.2879C62.6093 12.6914 64.8729 12.6488 64.9779 10.6365C64.5452 10.4593 63.9259 9.80115 63.7069 9.25714C63.2933 8.23214 63.5706 7.94828 63.7451 7.04555L63.3447 6.83604C63.1804 6.78271 62.9948 6.73961 62.8097 6.71591C61.0848 6.49238 59.9442 7.46998 59.721 7.51684C59.6218 7.53785 59.0879 7.2093 58.9007 7.11396C57.5581 6.42883 56.6996 6.70568 55.6338 6.97122Z" fill="white"/>
<path fill-rule="evenodd" clip-rule="evenodd" d="M56.6161 19.9628C55.7561 20.8418 55.5588 22.434 56.1018 23.1918C56.7317 24.0708 58.577 23.2096 59.6916 23.2107C60.8401 23.2123 62.486 24.0461 63.2491 23.2279C63.748 22.6936 63.6096 21.402 63.2294 20.5897C63.0651 20.2396 63.0274 20.1998 62.775 19.9692C62.7384 20.8413 62.9092 21.8641 62.1376 22.162C61.2622 22.5002 60.7654 21.7461 61.8322 20.8628C63.2374 19.7005 61.8561 18.5887 60.9928 18.4805C60.2998 18.3938 60.0469 18.6846 59.6964 18.6819C59.3247 18.6792 58.4222 18.0647 57.3977 18.9372C56.7694 19.4726 56.7513 20.2445 57.542 20.8687C58.6417 21.7375 58.0987 22.5121 57.2408 22.1668C56.5196 21.8765 56.5901 20.8353 56.6161 19.9628Z" fill="white"/>
<path fill-rule="evenodd" clip-rule="evenodd" d="M55.1788 7.26378C54.5027 7.17221 50.3779 8.16006 47.8565 6.03304C47.6206 5.83375 47.4265 5.59675 47.2021 5.4007C47.1932 6.40145 47.9684 7.70223 48.4223 8.10781L48.9086 8.60387C49.3047 8.98522 50.2475 9.55724 50.7719 9.7603C51.843 10.1761 52.9767 10.4244 54.1188 9.92135C55.1279 9.47591 55.5505 8.63026 55.1788 7.26378Z" fill="white"/>
<path fill-rule="evenodd" clip-rule="evenodd" d="M66.7243 7.43553C66.0159 7.43445 64.5445 7.21523 64.2051 7.26317C63.3334 10.3145 66.9502 11.0168 69.7987 9.11281C70.5936 8.58172 71.2829 7.8772 71.749 6.98524C71.9871 6.53065 72.1398 5.99203 72.1774 5.40009C71.7723 5.71464 71.9298 5.80027 71.224 6.25541C70.8242 6.51341 70.47 6.72239 69.9753 6.90337C68.927 7.28633 67.9545 7.43715 66.7243 7.43553Z" fill="white"/>
<path fill-rule="evenodd" clip-rule="evenodd" d="M45.2881 5.86182C45.6847 7.40928 47.4144 8.69227 48.8323 9.13663C48.2289 8.047 46.4027 6.87604 46.934 4.99679C47.0963 4.42154 47.5517 3.94001 47.8413 3.60552C48.5613 2.77282 49.1367 1.3988 48.3535 0.182595L48.2246 0C48.2161 1.23775 47.8296 2.10925 47.1206 2.54661C46.5511 2.89779 46.0082 3.10892 45.593 3.77519C45.2006 4.40538 45.103 5.13899 45.2881 5.86182Z" fill="white"/>
<path fill-rule="evenodd" clip-rule="evenodd" d="M53.8967 10.8005C52.3214 11.1635 51.8319 10.9524 50.4522 10.473C46.8783 9.23147 50.2263 13.9848 52.3208 13.5243C53.3686 13.2943 53.2922 12.0113 53.4837 11.519C53.629 11.1441 53.7483 11.0655 53.8967 10.8005Z" fill="white"/>
<path fill-rule="evenodd" clip-rule="evenodd" d="M65.4827 10.8053C65.9186 11.4743 65.8767 11.3477 66.0697 12.3296C66.5151 14.5983 69.0407 13.179 69.8541 12.0786C70.815 10.7794 70.7815 9.81262 68.9797 10.4573C67.2782 11.0665 67.0125 11.1123 65.4827 10.8053Z" fill="white"/>
<path fill-rule="evenodd" clip-rule="evenodd" d="M55.85 20.3646C55.8988 19.3881 55.8431 18.7504 56.1125 17.8234C56.7997 15.4556 55.5939 15.2957 54.5832 14.1549C54.0445 13.5473 53.914 13.1913 53.7767 12.1232L53.5858 12.6268C53.5497 12.7986 53.5163 13.0044 53.4957 13.1972C53.3647 14.4145 53.5885 15.5639 54.1028 16.6228C54.8616 18.1848 55.0822 18.4181 55.7126 20.0749C55.7715 20.2295 55.7662 20.2397 55.85 20.3646Z" fill="white"/>
<path fill-rule="evenodd" clip-rule="evenodd" d="M64.5957 14.359C64.2314 14.6973 63.8767 14.9898 63.5575 15.3409C62.5977 16.3972 63.2335 17.434 63.4138 18.4682C63.5363 19.1727 63.453 19.769 63.5485 20.3792L64.0533 19.0774C64.6063 17.8181 65.6573 16.1817 65.7919 15.0496C66.0009 14.3192 65.9987 12.7324 65.6148 12.1318C65.4324 13.2737 65.2378 13.8344 64.5957 14.359Z" fill="white"/>
<path fill-rule="evenodd" clip-rule="evenodd" d="M74.1255 5.86182C73.7288 7.40928 71.9992 8.69227 70.5813 9.13663C71.1847 8.047 73.0109 6.87604 72.4796 4.99679C72.3173 4.42154 71.8618 3.94001 71.5723 3.60552C70.8522 2.77282 70.2769 1.3988 71.0601 0.182595L71.1889 0C71.1974 1.23775 71.584 2.10925 72.2929 2.54661C72.8624 2.89779 73.4054 3.10892 73.8206 3.77519C74.213 4.40538 74.3105 5.13899 74.1255 5.86182Z" fill="white"/>
<path fill-rule="evenodd" clip-rule="evenodd" d="M62.5566 15.74L62.6892 15.4389C62.8037 15.1691 62.9729 14.9665 63.22 14.7963C63.5997 14.5346 63.8537 14.4522 64.1962 14.1371C64.6793 13.6932 65.2265 12.7927 65.157 11.8011C64.5695 12.7819 65.0292 12.6058 63.6246 13.4826C62.7057 14.0568 62.4941 14.6245 62.5566 15.74Z" fill="white"/>
<path fill-rule="evenodd" clip-rule="evenodd" d="M56.8296 15.74L56.697 15.4389C56.5825 15.1691 56.4133 14.9665 56.1662 14.7963C55.7866 14.5346 55.5326 14.4522 55.1901 14.1371C54.707 13.6932 54.1598 12.7927 54.2292 11.8011C54.8168 12.7819 54.357 12.6058 55.7617 13.4826C56.6806 14.0568 56.8922 14.6245 56.8296 15.74Z" fill="white"/>
<path fill-rule="evenodd" clip-rule="evenodd" d="M56.3611 23.7027C56.5509 24.1568 57.1639 24.6275 57.691 24.8915C59.9875 26.0409 62.5789 24.8295 63.0243 23.6925C61.6684 24.2187 61.1196 23.5713 59.6911 23.5697C58.3008 23.5681 57.6708 24.2166 56.3611 23.7027Z" fill="white"/>
<path fill-rule="evenodd" clip-rule="evenodd" d="M30.471 22.542H30.6927H42.4473V20.5642H32.8566V17.298H42.1609V15.5011H32.8566V12.3615H42.4473V10.3837H30.471V22.542Z" fill="white"/>
<path fill-rule="evenodd" clip-rule="evenodd" d="M25.1562 15.1936H17.1022V10.3837H14.7166V22.542H14.9382H17.1022V17.298H25.1562V22.542H27.5582V10.3837H25.1562V15.1936Z" fill="white"/>
<path fill-rule="evenodd" clip-rule="evenodd" d="M0 12.4884H5.36934V22.5423H7.75442V12.4884H13.1683V10.384H0V12.4884Z" fill="white"/>
</svg>
