<?xml version="1.0" encoding="UTF-8"?> <svg xmlns="http://www.w3.org/2000/svg" width="1126" height="316" viewBox="0 0 1126 316" fill="none"><path fill-rule="evenodd" clip-rule="evenodd" d="M1067.73 148.692L1121.78 96.1267H1090.95L1048.99 139.482H1031.41V96.1267H1009.48V208.682H1031.41V158.964H1049.55L1094.24 208.682H1125.33L1067.73 148.692Z" fill="white"></path><path fill-rule="evenodd" clip-rule="evenodd" d="M965.292 208.684H987.377V96.1294H965.292V208.684Z" fill="white"></path><path fill-rule="evenodd" clip-rule="evenodd" d="M949.055 152.616C946.537 147.784 942.659 144.279 937.554 142.414C930.932 139.981 923.181 139.492 916.51 139.482H872.793V96.1267H850.713V208.682H917.153C922.528 208.682 928.301 208.367 933.715 207.086C937.554 206.173 941.353 204.583 944.525 201.835C947.72 199.058 949.625 195.328 950.837 191.599L950.842 191.594C952.644 186.014 953.061 179.751 953.066 174.167C953.046 167.46 952.433 159.103 949.055 152.616ZM929.921 181.142C929.15 183.242 927.972 184.952 926.112 186.198C924.345 187.375 922.136 188.148 919.755 188.602C917.384 189.056 914.861 189.2 912.519 189.2H872.822V158.963H911.925C916.707 158.944 922.239 159.587 925.901 161.945C927.844 163.192 929.067 164.917 929.872 167.046C930.672 169.165 930.986 171.669 930.986 174.167C930.986 176.6 930.687 179.053 929.921 181.142Z" fill="white"></path><path fill-rule="evenodd" clip-rule="evenodd" d="M824.152 155.057C821.948 150.345 818.399 146.82 813.564 144.88C807.301 142.352 799.819 141.838 793.497 141.828H742.127V114.439H817.079V96.1294H720.042V208.684H793.649C799.918 208.674 807.217 208.166 813.427 205.737C818.139 203.902 821.762 200.611 824.074 196.044C827.117 190.031 827.696 182.501 827.711 176.318C827.696 169.737 827.181 161.524 824.152 155.057ZM804.424 183.982C803.447 186.46 801.621 188.051 798.995 189.038C796.04 190.14 791.784 190.385 788.269 190.375H742.127V160.138H789.172C792.608 160.123 796.702 160.422 799.476 161.654C801.96 162.751 803.697 164.361 804.566 166.74C805.416 169.063 805.636 172.225 805.627 175.032C805.641 178.039 805.391 181.534 804.424 183.982Z" fill="white"></path><path fill-rule="evenodd" clip-rule="evenodd" d="M515.027 64.5359C515.921 73.227 519.735 74.9373 515.332 85.578C513.236 90.629 507.689 96.8419 503.604 98.5173C505.838 117.505 525.429 118.223 529.749 131.855C535.305 149.407 520.766 158.293 521.585 181.828C521.728 181.713 521.914 181.339 521.978 181.454C522.042 181.563 522.273 181.17 522.356 181.075C524.212 178.961 521.875 181.758 523.009 180.322C526.656 175.705 526.548 174.638 533.656 170.918C548.888 162.94 571.881 166.251 580.594 178.238L583.485 181.947C583.819 156.542 570.104 149.627 575.233 132.269C579.602 117.49 600.558 117.096 601.53 98.4676C597.524 96.8271 591.791 90.7338 589.763 85.6977C585.935 76.2089 588.502 73.581 590.117 65.224L586.411 63.2845C584.889 62.7909 583.171 62.3918 581.458 62.1725C565.49 60.1032 554.931 69.1532 552.864 69.587C551.946 69.7815 547.003 66.7399 545.27 65.8574C532.841 59.5148 524.894 62.0777 515.027 64.5359Z" fill="#D12420"></path><path fill-rule="evenodd" clip-rule="evenodd" d="M524.121 184.804C516.159 192.942 514.333 207.681 519.359 214.697C525.191 222.835 542.274 214.862 552.592 214.872C563.224 214.887 578.461 222.605 585.525 215.031C590.144 210.085 588.863 198.128 585.343 190.608C583.822 187.367 583.473 186.998 581.137 184.864C580.798 192.937 582.378 202.406 575.236 205.163C567.132 208.295 562.532 201.314 572.409 193.136C585.417 182.376 572.63 172.084 564.638 171.082C558.222 170.279 555.881 172.972 552.636 172.947C549.195 172.922 540.84 167.233 531.356 175.31C525.54 180.267 525.373 187.412 532.692 193.191C542.872 201.234 537.846 208.404 529.904 205.208C523.228 202.52 523.88 192.882 524.121 184.804Z" fill="#D12420"></path><path fill-rule="evenodd" clip-rule="evenodd" d="M510.815 67.2442C504.556 66.3966 466.371 75.5415 443.029 55.8508C440.845 54.0058 439.049 51.8118 436.971 49.9968C436.889 59.2613 444.065 71.3031 448.267 75.0578L452.769 79.6501C456.435 83.1804 465.163 88.4758 470.018 90.3556C479.934 94.205 490.429 96.5037 501.002 91.8465C510.344 87.7229 514.256 79.8944 510.815 67.2442Z" fill="#D12420"></path><path fill-rule="evenodd" clip-rule="evenodd" d="M617.696 68.8341C611.138 68.8241 597.516 66.7947 594.375 67.2385C586.305 95.4856 619.788 101.988 646.157 84.3614C653.516 79.445 659.897 72.9229 664.212 64.6656C666.416 60.4572 667.83 55.471 668.178 49.9911C664.428 52.9031 665.886 53.6958 659.352 57.9092C655.651 60.2976 652.372 62.2323 647.792 63.9077C638.087 67.4529 629.085 68.8491 617.696 68.8341Z" fill="#D12420"></path><path fill-rule="evenodd" clip-rule="evenodd" d="M419.251 54.2655C422.923 68.5911 438.936 80.4683 452.062 84.5819C446.476 74.4947 429.57 63.6546 434.488 46.2575C435.99 40.9322 440.207 36.4744 442.887 33.378C449.553 25.6692 454.879 12.9493 447.629 1.69036L446.436 0C446.358 11.4584 442.779 19.5263 436.216 23.5751C430.944 26.8261 425.918 28.7806 422.074 34.9486C418.441 40.7826 417.538 47.574 419.251 54.2655Z" fill="#D12420"></path><path fill-rule="evenodd" clip-rule="evenodd" d="M498.947 99.9845C484.363 103.345 479.832 101.391 467.059 96.9528C433.974 85.4595 464.968 129.463 484.358 125.2C494.057 123.071 493.351 111.194 495.123 106.636C496.468 103.166 497.572 102.438 498.947 99.9845Z" fill="#D12420"></path><path fill-rule="evenodd" clip-rule="evenodd" d="M606.203 100.03C610.238 106.223 609.85 105.051 611.637 114.141C615.761 135.143 639.141 122.004 646.671 111.817C655.566 99.7904 655.257 90.84 638.577 96.8086C622.824 102.448 620.365 102.872 606.203 100.03Z" fill="#D12420"></path><path fill-rule="evenodd" clip-rule="evenodd" d="M517.028 188.525C517.48 179.485 516.964 173.581 519.458 165C525.82 143.08 514.657 141.599 505.301 131.038C500.314 125.414 499.106 122.118 497.835 112.23L496.068 116.892C495.734 118.483 495.425 120.388 495.233 122.173C494.021 133.442 496.092 144.082 500.854 153.885C507.878 168.345 509.92 170.505 515.757 185.842C516.302 187.273 516.252 187.368 517.028 188.525Z" fill="#D12420"></path><path fill-rule="evenodd" clip-rule="evenodd" d="M597.992 132.928C594.619 136.06 591.335 138.767 588.38 142.018C579.495 151.796 585.381 161.395 587.05 170.968C588.184 177.49 587.413 183.01 588.297 188.66L592.97 176.608C598.09 164.95 607.819 149.802 609.066 139.321C611 132.559 610.98 117.87 607.426 112.31C605.738 122.881 603.936 128.072 597.992 132.928Z" fill="#D12420"></path><path fill-rule="evenodd" clip-rule="evenodd" d="M686.213 54.2655C682.541 68.5911 666.528 80.4683 653.402 84.5819C658.989 74.4947 675.894 63.6546 670.976 46.2575C669.474 40.9322 665.257 36.4744 662.577 33.378C655.911 25.6692 650.585 12.9493 657.835 1.69036L659.028 0C659.106 11.4584 662.685 19.5263 669.248 23.5751C674.52 26.8261 679.547 28.7806 683.39 34.9486C687.023 40.7826 687.926 47.574 686.213 54.2655Z" fill="#D12420"></path><path fill-rule="evenodd" clip-rule="evenodd" d="M579.114 145.712L580.342 142.925C581.402 140.426 582.968 138.552 585.255 136.976C588.77 134.553 591.121 133.79 594.292 130.873C598.764 126.764 603.83 118.427 603.187 109.247C597.748 118.327 602.004 116.697 589.001 124.814C580.494 130.13 578.535 135.385 579.114 145.712Z" fill="#D12420"></path><path fill-rule="evenodd" clip-rule="evenodd" d="M526.097 145.712L524.87 142.925C523.809 140.426 522.244 138.552 519.956 136.976C516.441 134.553 514.09 133.79 510.919 130.873C506.447 126.764 501.381 118.427 502.024 109.247C507.463 118.327 503.207 116.697 516.211 124.814C524.718 130.13 526.676 135.385 526.097 145.712Z" fill="#D12420"></path><path fill-rule="evenodd" clip-rule="evenodd" d="M521.76 219.427C523.517 223.63 529.192 227.988 534.071 230.431C555.331 241.072 579.32 229.858 583.444 219.332C570.892 224.204 565.811 218.21 552.587 218.195C539.716 218.18 533.884 224.184 521.76 219.427Z" fill="#D12420"></path><path fill-rule="evenodd" clip-rule="evenodd" d="M153.551 276.192L166.437 307.835H166.997L179.887 276.192H197.196V315.688H187.893V284.045H186.661L173.329 315.688H160.105L146.773 284.045H145.54V315.688H136.238V276.192H153.551Z" fill="#D12420"></path><path fill-rule="evenodd" clip-rule="evenodd" d="M234.092 303.17L224.79 315.691H212.689L224.063 301.919C219.635 300.897 215.492 296.115 215.492 290.081C215.492 278.867 221.26 276.195 229.33 276.195H258.857V315.691H249.554V303.17H234.092ZM230.116 283.649C225.968 283.649 224.79 285.529 224.79 289.683C224.79 293.891 226.473 295.716 230.395 295.716H249.554V283.649H230.116Z" fill="#D12420"></path><path fill-rule="evenodd" clip-rule="evenodd" d="M321.203 302.032C321.144 312.563 318.626 315.689 307.139 315.689H289.826C279.071 315.689 275.654 312.334 275.654 301.748V290.534C275.654 278.98 279.297 275.74 290.724 275.74H306.187C315.376 275.74 321.144 278.412 321.144 289.512H311.847C311.847 285.358 309.775 283.593 304.395 283.593H292.462C286.243 283.593 284.952 284.675 284.952 290.878V300.666C284.952 306.699 287.141 307.836 292.462 307.836H304.395C309.942 307.836 311.847 306.814 311.847 302.032H321.203Z" fill="#D12420"></path><path fill-rule="evenodd" clip-rule="evenodd" d="M347.38 291.33H371.419V276.192H380.716V315.688H371.419V299.183H347.38V315.688H338.083V276.192H347.38V291.33Z" fill="#D12420"></path><path fill-rule="evenodd" clip-rule="evenodd" d="M429.98 315.689H412.892C402.471 315.689 398.549 311.76 398.549 302.202V289.796C398.549 278.981 402.299 275.74 412.892 275.74H429.98C439.616 275.74 444.043 278.696 444.043 289.796V302.202C444.043 312.045 440.848 315.689 429.98 315.689ZM415.131 307.836H427.456C433.396 307.836 434.741 306.525 434.741 301.174V290.648C434.741 284.899 432.836 283.593 427.29 283.593H415.302C409.471 283.593 407.846 285.069 407.846 290.703V301.234C407.846 306.41 409.471 307.836 415.131 307.836Z" fill="#D12420"></path><path fill-rule="evenodd" clip-rule="evenodd" d="M467.53 307.836H468.821L492.52 276.193H508.15V315.689H498.848V284.046H497.562L474.196 315.689H458.232V276.193H467.53V307.836ZM481.647 273.291C470.446 273.291 468.315 271.012 468.315 265.208V264.695H475.879C475.879 268.34 476.719 268.679 481.647 268.679C486.355 268.679 487.474 268.34 487.474 264.695H495.039C495.039 270.214 493.865 273.291 481.647 273.291Z" fill="#D12420"></path><path fill-rule="evenodd" clip-rule="evenodd" d="M600.806 315.691H591.504V276.195H618.007C627.814 276.195 631.677 280.064 631.677 290.021C631.677 300.039 627.701 304.023 618.119 304.023H600.806V315.691ZM600.806 296.169H616.328C621.03 296.169 622.375 294.295 622.375 290.021C622.375 286.152 621.202 284.048 616.328 284.048H600.806V296.169Z" fill="#D12420"></path><path fill-rule="evenodd" clip-rule="evenodd" d="M642.223 276.192H681.944V283.646H651.525V292.298H680.992V299.183H651.525V308.234H681.944V315.688H642.223V276.192Z" fill="#D12420"></path><path fill-rule="evenodd" clip-rule="evenodd" d="M738.199 302.032C738.14 312.563 735.622 315.689 724.135 315.689H706.822C696.067 315.689 692.646 312.334 692.646 301.748V290.534C692.646 278.98 696.293 275.74 707.72 275.74H723.183C732.372 275.74 738.14 278.412 738.14 289.512H728.843C728.843 285.358 726.772 283.593 721.391 283.593H709.458C703.239 283.593 701.948 284.675 701.948 290.878V300.666C701.948 306.699 704.132 307.836 709.458 307.836H721.391C726.938 307.836 728.843 306.814 728.843 302.032H738.199Z" fill="#D12420"></path><path fill-rule="evenodd" clip-rule="evenodd" d="M785.175 276.192V284.045H768.76V315.688H759.458V284.045H743.215V276.192H785.175Z" fill="#D12420"></path><path fill-rule="evenodd" clip-rule="evenodd" d="M821.65 315.689H804.562C794.141 315.689 790.219 311.76 790.219 302.202V289.796C790.219 278.981 793.974 275.74 804.562 275.74H821.65C831.286 275.74 835.713 278.696 835.713 289.796V302.202C835.713 312.045 832.518 315.689 821.65 315.689ZM806.801 307.836H819.127C825.066 307.836 826.411 306.525 826.411 301.174V290.648C826.411 284.899 824.507 283.593 818.96 283.593H806.967C801.146 283.593 799.521 285.069 799.521 290.703V301.234C799.521 306.41 801.146 307.836 806.801 307.836Z" fill="#D12420"></path><path fill-rule="evenodd" clip-rule="evenodd" d="M855.356 315.691H846.054V276.195H872.556C882.359 276.195 886.227 280.064 886.227 290.021C886.227 300.039 882.251 304.023 872.664 304.023H855.356V315.691ZM855.356 296.169H870.873C875.58 296.169 876.925 294.295 876.925 290.021C876.925 286.152 875.752 284.048 870.873 284.048H855.356V296.169Z" fill="#D12420"></path><path fill-rule="evenodd" clip-rule="evenodd" d="M885.302 315.691L905.924 276.195H919.703L940.153 315.691H929.231L924.238 305.733H901.216L896.175 315.691H885.302ZM920.488 298.274L913.09 283.594H912.644L904.971 298.274H920.488Z" fill="#D12420"></path><path fill-rule="evenodd" clip-rule="evenodd" d="M954.038 291.33H978.072V276.192H987.374V315.688H978.072V299.183H954.038V315.688H944.736V276.192H954.038V291.33Z" fill="#D12420"></path><path fill-rule="evenodd" clip-rule="evenodd" d="M282.084 208.682H284.136H392.954V190.372H304.169V160.135H390.303V143.501H304.169V114.436H392.954V96.1267H282.084V208.682Z" fill="white"></path><path fill-rule="evenodd" clip-rule="evenodd" d="M232.882 140.654H158.323V96.1267H136.238V208.682H138.29H158.323V160.135H232.882V208.682H255.119V96.1267H232.882V140.654Z" fill="white"></path><path fill-rule="evenodd" clip-rule="evenodd" d="M0 115.611H49.7064V208.684H71.7861V115.611H121.905V96.1294H0V115.611Z" fill="white"></path></svg> 